<svg width="80mm" height="80mm" version="1.1" viewBox="0 0 80 80" xmlns="http://www.w3.org/2000/svg" xmlns:cc="http://creativecommons.org/ns#" xmlns:dc="http://purl.org/dc/elements/1.1/" xmlns:rdf="http://www.w3.org/1999/02/22-rdf-syntax-ns#"><metadata><rdf:RDF><cc:Work rdf:about=""><dc:format>image/svg+xml</dc:format><dc:type rdf:resource="http://purl.org/dc/dcmitype/StillImage"/><dc:title/></cc:Work></rdf:RDF></metadata><g display="none"><circle cx="40" cy="40" r="38" fill="#faec4d" fill-rule="evenodd" stroke="#000" stroke-width="4"/></g><g display="none"><circle cx="40" cy="40" r="38" display="inline" fill="#faec4d" fill-rule="evenodd" stroke="#000" stroke-width="4"/><path d="m51 43-22-18 16 24zm5 16 8 11-6 4-8-11-18-8-9-39 33 23z"/></g><g><circle cx="40" cy="40" r="38" fill="#9abd49" fill-rule="evenodd" stroke="#000" stroke-width="4"/><path d="m45 50c-3 0-5-3-5-5 0-4 2-8 8-8 6 0 12 3 12 13 0 10-10 17-20 17-15 0-26-12-26-27 0-5 1-10 5-14-2 19 6 31 21 31 8 0 11-4 12-7s0-5-1-6c0 4-3 6-6 6zm-10-20c3 0 5 3 5 5 0 4-2 8-8 8-6-1e-6 -12-3-12-13 0-10 10-17 20-17 15 0 26 12 26 27 0 5-1 10-5 14 2-24-6-31-21-31-8 0-11 4-12 7s0 5 1 6c0-4 3-6 6-6z"/></g><g display="none"><circle cx="40" cy="40" r="38" display="inline" fill="#c41f25" fill-rule="evenodd" stroke="#000" stroke-width="4"/><path d="m41 58c21.1-3.573 33.25-38.12-4.625-51.69 19.58-2.139 41.07 21.04 31.2 39.69-2.727 5.154-10.53 17.7-26.57 11.99zm14.94-27.45c-13.56-16.56-49.59-9.981-42.6 29.64-11.56-15.95-2.088-46.1 19.01-46.77 5.828-0.1854 20.59 0.3726 23.59 17.14zm-30.94-0.5483c-7.525 20.03 16.23 47.91 47 22-8 18-38.84 24.92-50 7-3.082-4.95-10-18 3-29z" display="inline"/></g><g display="none"><circle cx="40" cy="40" r="38" display="inline" fill="#9fcff0" fill-rule="evenodd" stroke="#000" stroke-width="4"/><path d="m29 40c2 6 6 13 11 15 5-2 9-9 11-15 9-1 14-5 16-14 0 14-12 34-27 42-15-8-27-28-27-42 2 9 7 13 16 14zm11 10-11-25 11-10 11 10z"/></g><g display="none"><circle cx="40" cy="40" r="38" display="inline" fill="#a6a8aa" fill-rule="evenodd" stroke="#000" stroke-width="4"/><path d="m40 14c5 5 16 6 25 7 0 23-5 39-25 50-20-11-25-27-25-50 9-1 20-2 25-7zm0 6c-4 3-6 3-12 4-1 11 21 19 28 22 3.225-5.042 4.409-12.34 4-21-11-1-16-2-20-5zm-19 13c0 10 7 24 19 32 3.834-1.483 7.002-4.542 10-8 1-9-22-19-29-24z"/></g></svg>
